<?xml version="1.0" encoding="UTF-8"?>
<svg id="Layer_1" data-name="Layer 1" xmlns="http://www.w3.org/2000/svg" viewBox="0 0 2000 2000">
  <defs>
    <style>
      .cls-1 {
        fill: #d9a567;
      }

      .cls-1, .cls-2, .cls-3, .cls-4, .cls-5 {
        fill-rule: evenodd;
      }

      .cls-2 {
        fill: #2c6947;
      }

      .cls-3 {
        fill: #ea6c66;
      }

      .cls-4 {
        fill: #f3b7b9;
      }

      .cls-5, .cls-6 {
        fill: #e62827;
      }
    </style>
  </defs>
  <path id="cedar-tree" class="cls-2" d="M720.66,907.25c-47.39-16.43-10.87,24.44-29,28.5-6.75,1.25-13.79,1.5-20.5,4-7.46,3.5-15.22,8.01-23,12-8.87,2.58-17.3,5.99-26,8-9.35,4.05-19.37,7.3-29,10-7.87,3.58-17.36,4.61-25.5,6.5-8.99,1-31.73-.43-22.5,14.5,3.04,14.33,30.44,4.96,40.5,5.5,14.56-3.13,34.11-2.09,49.5-3.5,8.1-1.14,4.52,3.2,6,1.5,5.45-8.32,19.05-18.98,25-27,16.71-20.73,39.62-38.92,54.5-60ZM1457.66,833.25c-34.56-48.74-36.33-18.3-83.5-30.5-40.08-11.8-82.7-29.42-126-21-4.56,1.36-13.68,4.5-17.5-.5.57-6.55-3.56-20.49,3-25,6.99-1.93,14.3-1.32,21-4,20.01-3.21,18.33-21.87,28-17.5,20.56,5.06,31.74-13,54-7,9.65.56,22.67,1.3,30-5.5,3.12-5.94.98-16.65-6.5-17.5-5.71-2.29-13.68.09-19.5,1-10.73.73-21.62-1.84-31.5-3.5-11.66-3.18-27.16,1.4-37.5-6.5-8.07-8.11-19.11-17.67-30-20-1.21.31-4-.18-5-1-1-.06-7.49,1.04-6-2,.27,4.87-7.25,11.62-10,16-9.46,15.72-21.76,29.75-31,46-3.37,1.02-1.15.21.5.5,4.04,3.81,4.78,12.02,3.5,17-1.28,13.29-10.4,25.5-22,31.5-3.85,1.45-8.13,3.07-12,5-2.23-.66-10.91,7.28-10.5,1.5-2.04,2.4-.93,6.23-4,8-8.1,10.95-15.97,23.17-24,34.5-1.66,3.11-3.82,7.1-6.5,9.5-.45,1.83,5.23.94,6.5,1.5,12.46,3.87,25.27-5.21,38-3,12.2-1.34,21.58,16.57,10.5,24-9.94,5.74-21.68,8.41-33,11-9.75,2.78-21.31,5.72-31.5,4-8.37.13-15.2-5.47-24-4-11.58,4.14-32.03,8.37-40.5-3.5-1.69-8.62.2-17.57,6-24,14.71-11.89,11.53-18.15,16-33.5-9.21-10.73-20.86-21.52-30-32-3.93-2.52-10.62-7.99-11-12.5.69,3.31-1.94,2.32-4,2.5-.73.74-6.54,1.03-7-.5-1.09.1-1.63-2.59-3-2-.73,1.7-3.98,6.35-4.5,8.5-7.53,10.46-12.53,23.98-19,35-8.91,15.16-17.32,31.12-25,47-15.61,27.06-32.04,56.76-46.98,84.42,6.38,3.65,24.78-3.4,21.48,11.58-1.97,5.79-6.38,15.43-14,15-7.93,2.79-12.27-4.06-12.5-11.5-1.78-2.68-3.91-5.52-5.57-4.87-1.02-.03-.77,11.27-1.93,11.37.72-.24,2.13-.02,2.5.5-1.25,7.18-.39,15.47-5,21.5-1.22,3.11-11.19,10.94-12,5-2.98,4.01-5.63,9.74-8.54,14.07-8.6,12.8-13.67,9.38-21.15-.85-7.57-10.36-8.5-13.18-19.81-34.22,1.68,3.12-4.6,1.8-6,1-2.17.46-4.24-.8-5.5-2.5-.64-10.88,4.91-9.44-1.5-20.5-6.7-11.01-13.86-25-20-37-1.92-1.87-2.53-5.18-4.5-7-1.16-2.49-3.88-4.38-3-7.5.44,2.97-3.48,5.4-5.5,6.5-5.18,6.15-12.05-2.71-17.5-4-3.24-3.94-14.36-3.85-15.5-8.5-18.55,21.89-47.11,48.04-65.5,69.5-7.42,8.68-24.01,22.55-29,31.5,19.95.61,40.77,4.99,60-.5,16.23-4.61,35.25-9.88,52.5-5.5,7.41,2.84,31.05,18.07,14,23.5-10.52.21-21.08,1.15-19.5,15-1.46,12.09-14.33,16.55-24.5,12-4.89-4.21-8.13-11.46-13.5-15-8.6-3.49-17.78,1.39-25,6-7.53,5.29-17.58,4.42-26.5,6-14.28,13.1-20.59,19.62-41,21-.37.48-29.52-.92-29.5.5-1.68-.86-8.61,2.5-7.5-1.5-3.45,5.13-11.17,13.21-17,16.5-2.04.21-8.97.27-10-3,.15-3.23-.2-1.8-2.5-1.5-3.77,3.04-7.82,7.42-9,12-2.26,4.95-3.68,17.15,5,15.5,5.76,1.78,13.68.86,19.5,2.5,21.76,2.5,46.39,4.38,66.5-5.5,18.1-1.04,35.73,11.55,54,6,13.15-1.19,24.42-9.27,37-11.5,9.78-3.34,23.84-2.05,34-.5,7.46,2.27,15.17,4.9,23,5,9.49,1.7,20.87-.15,29.5-3,7.54-2.07,20.67-15.16,26.5-5.5-3.64,46.94,23.8,6.45,48,38.5,10.44,11.79,22.26,24.32,30,38,3.28,6.97,3.64,14.82,5.5,22,7.16,30.3-3.45,40.95-28.5,57.5-24.93,12.32-52.28,12.4-79.5,15-19.57,4.76-26.15,26.93-18.5,44,3.56,5.41,19.38,2.36,25,1.5,16.88.71,31.99-5.46,47-12,25.79-7.94,51.43,6.9,68-22,2.34-5.66,6.67-9.18,13-8,12.96,11.9,23.12,19.2,40.5,12,11.61-10.77,18.79-13.95,35-12.5,41.44,1.71,80.23,10.19,121,13.5,8.54.41,17.25.82,13.5-11-.81-5.92-9.11-10.52-13-14.5-7.4-5.86-18.23-2.89-26-7-4.59-1.18-10.14-4.64-15-6-9.84-1.12-18.96-3.17-28-8-18.46-12.49-13.72-52.59-8-71,6.59-16.13,23.92-24.97,33.5-39,6.23-8.68,7.99-18.97,15-27,6.13-3.34,13.55-.8,18.5,3.5,4.61,1.72,9.76,3.66,14.5,4.5,17.43,1.56,28.48-7.9,41-18.5,14.64-5.7,19.06,9.77,32.5,8.5,6.21-.68,11.7-6.42,18-7.5,11.26-4.88,23.08,2.25,34,5,8.76,3.95,22.09,2.13,31.5,2,18.17-3.03,36.82-5.04,55-11,11.45-.91,16.67,6.85,28,2,20.36-11.22,10.47-28.09-7-35.5-7.93-4.1-17.4-3.26-25.5-6.5-15.56-3.72-28.74-13.36-43.5-17.5-12.53-2.29-19.36,9.63-30.5,12-12.43,4.1-24.99-2.55-36-8-18.2-10.09-45.49,11.71-31.5-24.5,2.91-4.97,3.57-11.17,8-15,4.47-7.02,13.85-9.41,22-8,5.75,1.45,12.58,4.95,19,3,4.53-3.68,6.65-10.98,12.5-13,10.18-6.02,19.91,6.55,30,6.5,6.78-.66,14.16-11.21,21-12,22.17-1.83,24.73,17.25,53.5,12.5,6.06.12,11.66-2,17.5-3.5,4.36-1.21,3.57-7.87,3.5-11.5-4.07-14.32-9.45-11.66-22-13.5-10.82-2.77-21.76-7.46-31.5-14.5-8.59-5.62-17.51-16.79-28-18.5-18.23-3.21-36.69-4.07-54.5-7.5-8.69-2.65-18.37-3.95-27-6.5-15.07-1.41-33.44-.93-48.5.5-9.82,1.62-15.23,3.57-14.5-9,1.18-10.87,12.12-13.61,21-9,38.85,7.85,33.28-19.78,54.5-13,19.63,3.81,41.7-4.36,61,1,17.54,8.36,19.35,15.13,42,12,1.25-1.25,4.08-.91,4.5-2.5,1.85-1.51,1.33-6.06,2-8,2.6-5.5,7.94-10.38,14.5-10.5,11.22-2.47,23.89-2.1,35-6,9.43-.98,30.26-4.68,26.5-16ZM1038.16,1070.25c6.82,9.36,3.74,32.41,3,43.5-1.22,4.82-9.03,6.73-12.5,4-4.27-1.36-1.91-15.96-2.5-19.5,2.63-8.03-1.78-30.1,12-28ZM921.66,1068.25c3.35-7.61,11.55-8.95,19-7,6.38,4.07,12.89,8.87,20,11,8.69,1.3,19.77,9.86,15.5,19.5-8.56,6.47-20.27,16.01-31.5,11.5-25.65-7.72-26.15-7.76-23-35ZM1108.66,1065.75c15.02,17.02-22.24,63.41-43,60-5.88-2.91,1.41-11.44-1.5-16-4.72-13.98,3.49-26.41,10.5-37.5,12.09-25.03,13.65-12.4,34-6.5ZM1034.66,981.75c5.19,8.37,2.01,22.56-.5,31.5-1.9,16.47-16.58-3.79-18-10.5-2.25-11.25,7.61-21.33,18.5-21ZM969.66,959.75c9.78,4.94-.42,47.39-15,40.5-5.15-3.57-5.17-11.94-4.5-17-1.71-11.9,5.79-25.81,19.5-23.5ZM1071.66,989.25c1.1-7.85,9.53-12.04,17-12,6.77,1.09,18.2,7.33,22-2,.98-3.81-2.89-21.36,4-22,6.61,0,16.61-2.98,20.5,4.5,4.91,11.4,10.29,26.73,25.5,16.5,6.62-3.71,12.35-10.59,19.5-13,17.73-.23,21.03,25.67,16,38-5.82,11.09-20.72,11.03-31,9-2.67.12-5.3-1.54-8-1.5-1.9-1.53-5.1-.47-7-2-5.07.17-10.52.52-15,3-3.63.75-7.25,2.18-11,1-.7-1.17-2.3-.83-3-2-1.23.37-1.77-1.37-3-1-3.82-3.81-9.82-3.19-14.5-4.5-22.5-2.44-31.6,19.66-32-12ZM1011.16,944.25c19.38-6.07,8.02,49.49-.5,26-.02-7.53-5.53-19.5.5-26ZM982.16,824.25c9.75-10.15,26.71-5.38,38,0,9.68,5.46,7.63,10.42,5,19.5-6.81,10.13-8.57-3.58-21.5.5-20.13,7.63-24.65-.66-21.5-20ZM1334.66,640.75c-9.62-21.15-15.62-15.46-35-18-10.3-4.54-19.63-10.27-29.5-16-8.23-5.59-16.22-17.47-25.5-21-7.4-3.11-11.68,6.95-14.5,12-4.42,8.95-13.33.65-19-2-2.86-1.05-6.48-2.54-9.5-3.5-.96-.86-7.96.14-9-1-27.89-.14-54.8,5.29-83,4.5-20.33,2.95-30.38,1.5-19-20,7.45-22.09,19.1-14.74,35.5-15.5,5.3-3.13,8.83-8.43,14.5-11,11.38-1.69,29.41-2.64,37.5,7.5,3.25,5.15,10.27,10.37,16,11.5,2.25.34,9.51.03,11.5-1.5,1.49-1.73,2.89-3.73,3-6,2.77-4.42,4.01-10.19,5-15.5,1.85-4.55,2.91-9.69,1.5-14.5-9.01-6.78-20.88-11.08-31-17-8.01-5.55-17.85-10.17-27-13-9.46-1.45-19.2-2.71-29-4-2.88-1.63-6.82-1-9.5-3-2.95.13-5.83-2.87-8.5-3-2.69-1.73-6.37-1.61-9-3-3.19.44-5.87-2.1-9-2-12.63-4.35-10.75-10.2-19-16-7.18-1.44-18.26,1.51-25.5-1-4.4-3.43-6.39-9.24-10.5-13-7.97-5.75-18.1-8.79-28-9-34.24-4.74-44.34-1.68-73.5,15-4.86,1.71-9.7,3.87-14.5,6-4.46.78-9.44,2.21-13,5.5-2.49,5.65-4.38,12.46-9.5,16.5-16.37,10.29-32.81,20.12-51.5,24-2.5,2.31-2.23,6.46-3,9.5-1.71,6.58-5.91,7.22-11.5,8.5-33.5-1.23-13.59,4.68-30,17-7.22,3.1-17.8.73-25.5,3-10.47,5.34.84,16.88,7,20.5,7.17,4.14,16.46,5.62,25,5,5.57-1.91,11.01-8.96,16.5-12,11.26-4.85,28.19-1.1,40-2.5,6.26-.68,8.15-8.04,10-13,.14-8.56,10.89-11.88,17-13.5,7.86-1.88,3.82,8.08,2.5,12-1.03,6.56-1.86,15.67-2.5,22.5-.25,6.16.38,13.67-5,18-7.79,2.36-15.93,2.34-24,4-13.59,5.98-28.83,8.88-43,11.5-11.48.96-21.59,5.01-33,6.5-12.9,3.84-31.54-.82-44,5-6.41,1.07-11.55,5.65-17.5,8.5-4.31,3.8-10.38,6.58-16.5,5.5-7.98-6.44-7.01-7.78-18-4-14.45,7.06-16.58,15.18-17,30.5.49,5.88-5.41,15.17,3,18,5.62.49,11.57-.28,15-5,13.36-10.7,17.89,4.97,39,2,14.03-4.05,26.92-18,42.5-14,8.99,1.78,8.7,14.22,10,21.5,1.3,2.92,4.01,10.83.5,13-3.87.29-10.49.3-13-3.5-1.95-2.8-2.84-6.26-4-9.5-3.44-6.52-14.9-10.24-20.5-4.5-3.17,4.96.69,13.09-4.5,17-2.87,1.53-24.58-.91-26.5,2-1.9,3.2-2.34,7.17-4,10.5-13.65,11.8-33.2-7.35-48,9-17.55,17.96-46.76.55-56,15.5-6.99,21.91,15.97,9.23,27.5,13,13.96-.98,25.86,5.63,39.5,5,1.48-1.46,4.19-.42,5.5-1.5,2.64.07,4.35-2.16,6.5-2.5,4.4-4.04,12.12-10.81,18-5,2.48,4.13,4.14,9.46,8,13,9.7,5.17,20.96-.51,30.5-3,11.53-2.2,24.87-4.13,37-2,6.07,2.53,15.53,5.75,17.5,13,2.84,8.5,4.75,24.07-9,21.5-8.85,1.31-19.92,4.58-28.5.5-5.98-3.51-9.1-10.58-14.5-14.5-6.86-5.02-18.51-5.7-26-1-5.47,5.31-8.56,13.04-15.5,17-12.18,4.17-27.69,1.27-39.5-2-16.38-1.31-26.46-.05-35,16-6.97,8.24-16.67,13.98-26.5,17-3.96,1.09-9.82.4-13.5,2-10.1-.28-13.71,15.85-6.5,21.5,12,2.94,25.24,3.19,37,0,5.13-2.14,10.26-4.07,15-7,9.47-7.89,21-13.8,31-4.5,8.68,4.86,5.49,18.09-2.5,22-11.62,3.07-28.26-3.54-39.5,3-2.86.05-5.27,2.62-8,3-2.63,1.81-6.15,2.08-8.5,4-1.51-.11-1.9,1.39-3.5,1-.89,1.1-3.28.71-4,2-2.19-.01-4.64.92-6.5,2-2.94-.5-6.22,1.63-9,1.5-1.76,1.15-6.28.16-8,1.5-4.55.45-11.32-.16-14,4-3.33,3.52-1.51,9.21,0,13,2.85,3.3,7.4,4.91,11.5,5.5,6.43,2.66,13.3,5.34,20,7,13.78,6.07,17.4-9.67,27.5-14,9.27-1.95,18.21,4.36,28,3,13.47-3.93,27.87-7.26,42.5-7.5,7.44-1.13,17.47-1.67,25-2.5,6.1-1.86,14.34-2.34,16.5,5.5.83,3.59,2.82,6.59,4.5,10,13.2-8.95,24.89-29.33,39-37,2.82-1.5,7.74.24,10,2.5.27.52-.1,2.81-1,3,.1.06,1.67,3.14.5,1.5-.68-4.45,5.55-4.8,8.5-5.5,2.95-1.61,6.67-2.13,9.5-4,11.98-3.7,26.34-11.92,38-18,8.45-6.67,8.53.92,8,7.5,1.26,3.42,2,7.56,2,11.5,5.71,23.28-8.64,13.19-20,4.5-8.92-8.16-6.83,8.19-3,12.5,3.56,5.58,8.81,10.2,12,16,.17,3.72.12,9.34-4.5,10.5-9-.23-20.65-.58-29.5,0,1.21,2.98,4.3,8.08,5.5,11,5.4,8.53,10.74,17.87,15,27,2.97,4.92,8.57,11.19,8.5,17,.74-5.03,12.47-7.93,20-7,4.84,2.06,9.75,4.58,14.5,5.5,3.72,2.77,22.09,2.56,20,8.5-.64-3.85,2.54-7.47,4.5-10.5,2.48-4.69,5.93-11.75,9-16,7.52-15.57,17.61-32.72,24.5-49-5.78.67-6.97-6.75-8-10.5-.23-5.08,1.58-6.55-4.5-5.5-11.79,5.37-26.27,3.95-27-12-2.33-14.37,19.8-14.98,29-21,12.77-9.05,24.92-6.37,29,9.5,1.1,12.69,34.3-58.75,38-63,5.38-9.78,11.28-20.04,16.5-30,2.81-5.37,18.32,1.05,20.75,8.45-.76-3.11,4.2-6.16,6.25-7.45,5.09-4.26,11.36-8.36,16.5-12.5,13.94-8.8,24.98-19.26,15,6-1.8,10.48-13.02,19.39-20.5,26.5-4.09.62,3.43,6.27,4.5,7,0,0,26,26.5,26,26.5.92-.41,1.79,2.4,2.5,1,8.09-.85,18.27-.46,24.5,6,6.87,3.68,4.16,10.14,0,15,.02,1.26-1.04,2.42-1.5,3.5.72,2.05,3.12,4.56,5.5,4,8.17-6.57,12.56-17.82,19.5-25.5,1.84-2.5,5.62-10.8,8.5-11.5-7.31-.33-8.01-12.54-2-15.5,4.45-2.17,8.75-6.18,10.5-10.5.22-3.66,0-9.28-4.5-9.5-9.28-3.11-40.89,6.45-33-14,.57-6.03,3.68-12.5,9-16,17.13-2.29,16.65.99,31.5-10,4.72-4.46,15.11-3.1,16.5,4.5,1.93,7.33,6.43,8.22,13.5,7.5,1.2,1.83.97,1.42,1-.5.72-.94,2.21-2.39,2.5-3.5,4.19-5.18,9.56-10.81,12.5-16.5,7-10.11,15.6-22.34,21-33,2.91-.95.05,0-1-1-.68.46-1.65,1.23-2.5,1-25.74,16.09-21.52-16.47-49.5-10.5-11.76,1.9-18.77,14.16-25.5,22-3.75,3.46-13.25,6.08-16.5.5,0-5.08.82-10.46,3-15,7.12-29.44,43.49-11.76,63.5-19.5,8.3-4.19,11.94-18.77,23.08-14.99.56-3.25,7.6-4.01,9.1-6.51,4.99-2.54,10.58-6.48,15.64-8.66,10.24-6.27,20.69-12.17,31.21-18.18,4.18-.56,7.97-.08,6.62,5.69,1.1.77-.69,32.6,0,35.32.09-1.47,64.82-.14,65.35-.66,2.36-.93,4.21-3.91,3.5-6.5ZM914.16,776.75c3.15,10.9-21.73-.32-40.5,10-15.69,10.7-22.28,12.18-38.5,2-16.14-6.49-12.41-16.55-10.5-30,3.41-11.07,21.47-3.38,29.5-8.5,7.58-2.97,15.08-10.16,23.5-11.5,21.97-2.87,32.35,21.24,36.5,38ZM959.16,729.25c10.75,2.4,13,14.16,12,24,1.17,2.85,1.6,7.13,1,10.5-5.25,11.15-20.01,21.02-31.5,15.5-6.28-10.05-2.79-29.65-2.5-41.5,2.73-8.22,13.59-8.4,21-8.5ZM907.16,664.25c10.89-.97,13.87,13.41,11,21.5-11.67,9.45-19.59-14.89-11-21.5ZM808.16,667.25c2.93-6.06,10.75-4.26,16-4,6.64,1.71,9.22,13.82,16.5,10.5,6.1-2.04,11.44-6.92,17.5-8.5,10.04-.75,22.82,2.61,28,11.5,2.87,2.87,1.48,8.25,3,11.5-.76,4.34,1.87,8.41,3,12,5.18,9.52-5.67,10.05-12.5,9.5-3.78,1.07-11.31.84-15.5,1-12.53,3.11-22.5,3.29-33-6-22.72-10.41-22.24,5.51-21.5-26.5-1.68-3.12-2.58-7.55-1.5-11ZM939.16,647.25c5.23-1.84,12.84,1.41,16,6,1.05,4.51,2.65,14.61-1.5,18-11.92,1.57-21.4-14.48-14.5-24ZM1012.66,651.25c5.4-11.09,18.52-14.4,26.5-4,6.65.84,16-1.18,22.5,1.5,8.44,1.26,9.55,11.71,7.5,18.5-5.6,9.11-20,13.33-30,9-2.85-2.06-9.07-9.39-12.5-10.5-14.84.61-16.51.78-14-14.5ZM1073.16,553.75c-1.16,9.5-3.81,24.37-14.5,27-7.71-.56-19.42.74-23.5-7,.06-10.2,11.18-17.93,19-22.5,5.77-1.02,14.41-2.4,19,2.5ZM914.66,551.75c1.86-2.25,5.86-.55,8,.5,16.94,15.04,16.21-15.68,30.5-6,10.21,6.44,16.12,10.71,6,21.5-1.92,4.49-4.1,8.86-6,13.5-5.03,7.04-14.85,2.25-21,.5-11.13-5.12-20.35-17.32-17.5-30Z"/>
  <path class="cls-3" d="M1677.42,1506.97c44.37-107.22,68.93-225.28,68.93-349.28,0-485.74-315.35-885.21-838.46-847.25,31.34-5.11,62.24-7.69,92.26-7.69,233.49,0,473.84,69.38,650.67,270.9,83.2,140.51,131.33,306.84,131.33,485.12,0,166.25-37.48,318.63-104.73,448.2Z"/>
  <path class="cls-4" d="M1746.35,1157.69c0,20.84-.69,41.51-2.06,61.99-116.29,342.29-404.32,584.57-741.23,584.57-202.53,0-387.4-87.55-527.92-231.75-28.73-33.76-56.67-71.41-81.96-112.98,136.72,153.66,333.28,250.03,551.72,250.03,412.97,0,747.75-344.43,747.75-769.3,0-53.35-5.28-105.43-15.33-155.71,45.28,113.05,69.03,239.85,69.03,373.15Z"/>
  <path class="cls-5" d="M1170.16,1365.25l53-34.5s76.39,50.9,72.5,166.5l-62,32s14.42-104.77-63.5-164Z"/>
  <path class="cls-2" d="M770.83,1327.67l52.33,36.08s-65.43,69.02-65,168l-62.5-33s4.11-119.78,75.17-171.08Z"/>
  <path class="cls-1" d="M1162.12,1386.02s53.49,37.63,52.04,120.23c0,0-27.26.72-44,22.25l-156.5-105.25s-47.17-23.01-75,2c-27.83,25.01-37.76,26.58-53.5,22.5s-13.5-23-8.5-27.5,51.5-46.5,51.5-46.5c0,0,5.96-6.5,15.84-6.5h33.16s16.84-.54,26.96-3,21.54-2.5,35.04,4.5,39,18,39,18c0,0,48.09,24.46,65.05,12.98s18.91-13.7,18.91-13.7Z"/>
  <path class="cls-1" d="M836.94,1380.14s-59.81,60.8-57.79,137.11c0,0,16.72,1.72,28,11s42.55,34.13,42.55,34.13c0,0,14.31-21.9,27.95-23.13s26.54,7.05,21.5,29.5c0,0,16.33-18.75,32-10.5,15.67,8.25,8,29.5,8,29.5,0,0,18.92-23.69,36-14s-3,49-3,49c0,0,13.39-15.8,28.5-8.5s-2.5,39-2.5,39c0,0,31.69,23.81,51,21s20-28,20-28c0,0,20.58,5.27,30.8-4.8s8.46-24.7,8.46-24.7c0,0,23.72,11.12,35.15-3.54s6.09-30.46,6.09-30.46c0,0,21.05,8.59,30.58-9.16s-3.58-27.75-3.58-27.75l-163-113.09s-42.5-23.5-66-4l-23.5,19.5s-15.26,13.05-38.5,8-25.29-26.95-18-37,21.4-21.87,21.4-21.87c0,0-5.57-9.14-21.9-10.13s-30.21-7.11-30.21-7.11Z"/>
  <path class="cls-6" d="M1267.32,611.22c.12-4.7-4.98-7.71-9.04-5.32l-57.62,33.85,23.01,13.28-121.72,176.62-84.81-83.02c-2.22-2.17-5.37-3.2-8.44-2.75-3.07.45-5.8,2.33-7.3,5.04l-135.17,243.27-78.11-136.29c-1.56-2.73-4.36-4.58-7.48-4.96-3.12-.37-6.28.76-8.45,3.04l-201.15,211.53,13.04,12.4,193.75-203.75,79.82,139.28c1.79,3.12,5.14,5.07,8.74,5.03,3.6-.02,6.92-1.99,8.68-5.14l136.96-246.49,84.11,82.33c2.11,2.07,5.01,3.09,7.95,2.81,2.94-.28,5.59-1.84,7.28-4.28l127.93-185.63,26.35,15.2,1.66-66.02Z"/>
  <path class="cls-1" d="M857.16,1563.75s-12.13,23.05,1.41,31.96c13.55,8.91,27.47-12.22,29.09-15.46s9.3-25.01-1-30.5-24.23,3.37-29.5,14Z"/>
  <path class="cls-1" d="M926.7,1565.11s-17.84-10.14-32.33,21.21c-14.49,31.35-4.53,38.03-1.21,39.92s21.91,4.37,33.08-23.16,5.16-35.35.46-37.97Z"/>
  <path class="cls-1" d="M968.71,1580.26s-18.51-6.78-34.55,25.49-6.2,41.2-2,43.5,21.62,2.95,33.79-28.08,7.47-38.68,2.76-40.91Z"/>
  <path class="cls-1" d="M995.66,1618.75s-13.23-5.1-25.5,16.5-5.08,29.34-.5,32,16.11.3,24.34-18.99,7.19-25.73,1.66-29.51Z"/>
  <path class="cls-5" d="M1804.14,822.22c-2.51-5.88-5.05-11.7-7.63-17.46-40.83-91.39-90.13-167.77-145.69-231.11-37-42.16-76.78-78.54-118.69-109.71-158.41-117.8-347.34-161.19-531.98-161.19-30.02,0-60.92,2.58-92.26,7.69-293.82,47.86-625.74,317.37-625.74,757.81,0,155.76,47.03,286.06,111.03,391.27,25.29,41.57,53.23,79.22,81.96,112.98,123.44,145.01,261.55,218.13,267.33,221.16C242.94,1570.77,196.15,1103.88,196.15,977.25c-.62-14.97-.29-32.02,1.12-50.76,1.69-22.51,4.94-47.46,9.97-74.17,19.17-102,64.15-229.62,146.87-345.16,120.69-168.57,321.7-311.41,640.04-311.41,99.86,3.58,188.06,20.5,265.85,46.63,63.96,21.48,120.88,49.18,171.44,80.82,240.65,150.56,337.34,390.12,364.27,471.19,5.71,17.18,8.28,27.24,8.43,27.83Z"/>
</svg>